<svg width="38" height="17" viewBox="0 0 38 17" fill="none" xmlns="http://www.w3.org/2000/svg">
<path d="M29.0218 12.288H25.2618C26.1418 11.504 29.4378 8.736 29.4378 5.6C29.4378 4.112 28.3978 2.672 26.2698 2.672C24.7658 2.672 23.8538 3.232 23.1978 4.336C23.1018 4.512 23.0538 4.672 23.0538 4.848C23.0538 5.152 23.2138 5.424 23.4698 5.568C23.5978 5.648 23.7418 5.68 23.8858 5.68C24.1898 5.68 24.4938 5.52 24.7178 5.216C25.0858 4.72 25.4858 4.512 26.0618 4.512C26.9898 4.512 27.4858 5.072 27.4858 5.968C27.4858 8.016 25.0218 10.368 23.2138 12.208C23.0058 12.416 22.7818 12.704 22.7818 13.152C22.7818 13.616 23.1658 14 23.6298 14H29.0218C29.4858 14 29.8698 13.616 29.8698 13.136C29.8698 12.672 29.4858 12.288 29.0218 12.288ZM33.6882 12.336C33.1122 12.336 32.5842 12.16 32.0082 11.776C31.8162 11.648 31.6082 11.568 31.4002 11.568C31.1762 11.568 30.9522 11.664 30.7762 11.888C30.6482 12.064 30.5842 12.24 30.5842 12.432C30.5842 12.672 30.6962 12.912 30.8562 13.056C31.7682 13.84 32.6642 14.176 33.6402 14.176C35.7682 14.176 37.4962 12.784 37.4962 10.368C37.4962 8.16 35.9602 6.8 33.9762 6.8C33.7522 6.8 33.5122 6.832 33.3362 6.864L33.6562 4.64H36.4402C36.9362 4.64 37.3362 4.24 37.3362 3.712C37.3362 3.2 36.9362 2.8 36.4402 2.8H32.9362C32.4242 2.8 31.9922 3.184 31.9282 3.696L31.4482 7.616C31.4482 7.664 31.4322 7.728 31.4322 7.776C31.4322 8.24 31.7202 8.528 32.1842 8.528C32.2322 8.528 32.2962 8.512 32.3442 8.512C32.6002 8.48 32.8722 8.464 33.1442 8.464C34.6482 8.464 35.5282 9.328 35.5282 10.448C35.5282 11.552 34.7602 12.336 33.6882 12.336Z" fill="#CDCDCD"/>
<path d="M17.4427 4.10093C16.6082 3.0752 15.4745 2.2649 14.0419 1.67025C12.6092 1.07561 11.0443 0.77832 9.34731 0.77832C7.65034 0.77832 6.08545 1.07561 4.65277 1.67025C3.22009 2.2649 2.08649 3.07505 1.25188 4.10093C0.417246 5.12675 0 6.24467 0 7.45483C0 8.49799 0.314606 9.47543 0.944074 10.3865C1.57354 11.2975 2.43409 12.0627 3.52611 12.6816C3.44952 12.9597 3.35912 13.2239 3.25477 13.4745C3.15045 13.7249 3.05658 13.9301 2.97312 14.0901C2.88959 14.2499 2.77668 14.4274 2.63399 14.6219C2.49153 14.8168 2.38373 14.9542 2.31069 15.0342C2.23772 15.1142 2.11776 15.2462 1.95074 15.4306C1.78394 15.6148 1.67607 15.735 1.62744 15.7906C1.62039 15.7942 1.59262 15.8253 1.54395 15.8847C1.49531 15.9437 1.4709 15.9731 1.4709 15.9731L1.40831 16.067C1.37349 16.1189 1.35785 16.152 1.36128 16.1657C1.36479 16.1798 1.35785 16.2145 1.34046 16.27C1.32303 16.3258 1.32482 16.3676 1.34564 16.3953V16.4058C1.37349 16.524 1.42906 16.6197 1.51252 16.6927C1.59598 16.7655 1.69003 16.802 1.79424 16.802H1.84646C2.29863 16.7462 2.69502 16.67 3.03575 16.5725C4.85798 16.1066 6.45765 15.2651 7.83464 14.0479C8.35621 14.1035 8.86046 14.1313 9.34724 14.1313C11.0442 14.1313 12.6092 13.834 14.0418 13.2392C15.4745 12.6445 16.6081 11.8345 17.4426 10.8087C18.2773 9.78298 18.6946 8.66494 18.6946 7.45479C18.6946 6.24482 18.2774 5.12675 17.4427 4.10093ZM16.269 10.1151C15.5421 10.9357 14.5614 11.5878 13.327 12.071C12.0925 12.5542 10.7658 12.7961 9.34705 12.7961C8.92286 12.7961 8.47083 12.7683 7.99096 12.7125L7.39631 12.6501L6.94772 13.0467C6.0924 13.7978 5.13601 14.3924 4.07888 14.8306C4.39875 14.2673 4.64218 13.6691 4.80916 13.0364L5.09081 12.0348L4.18324 11.5133C3.2791 10.9984 2.57849 10.3882 2.08111 9.6822C1.58381 8.97644 1.33527 8.23385 1.33527 7.45497C1.33527 6.50213 1.69865 5.61546 2.42539 4.79478C3.15235 3.97418 4.13285 3.32213 5.36738 2.83879C6.6019 2.3554 7.9284 2.11351 9.34727 2.11351C10.766 2.11351 12.0925 2.35529 13.3269 2.83864C14.5614 3.32202 15.542 3.97403 16.269 4.79464C16.9958 5.61532 17.3591 6.50202 17.3591 7.45479C17.3591 8.40756 16.9958 9.29445 16.269 10.1151Z" fill="#CDCDCD"/>
</svg>