<svg width="36" height="13" viewBox="0 0 36 13" fill="none" xmlns="http://www.w3.org/2000/svg">
<path d="M8.28 8.592L2.488 1.264C2.168 0.863999 1.896 0.719999 1.496 0.719999C0.952 0.719999 0.552 1.104 0.552 1.616V11.232C0.552 11.728 0.952 12.128 1.48 12.128C1.992 12.128 2.392 11.728 2.392 11.232V4.24L8.184 11.536C8.472 11.904 8.808 12.128 9.24 12.128C9.752 12.128 10.12 11.728 10.12 11.232V1.616C10.12 1.12 9.72 0.719999 9.208 0.719999C8.68 0.719999 8.28 1.12 8.28 1.616V8.592ZM14.7752 10.16V7.264H17.9112C18.4072 7.264 18.8072 6.864 18.8072 6.336C18.8072 5.824 18.4072 5.424 17.9112 5.424H14.7752V2.64H18.3912C18.8872 2.64 19.2872 2.24 19.2872 1.712C19.2872 1.2 18.8872 0.799999 18.3912 0.799999H13.7032C13.2072 0.799999 12.8072 1.2 12.8072 1.696V11.104C12.8072 11.6 13.2072 12 13.7032 12H18.5512C19.0472 12 19.4472 11.6 19.4472 11.072C19.4472 10.56 19.0472 10.16 18.5512 10.16H14.7752ZM29.1297 1.664C28.9537 1.104 28.5697 0.719999 27.9297 0.719999C27.2577 0.719999 26.8897 1.12 26.7137 1.664L24.4417 8.784L22.3937 1.536C22.2657 1.104 21.9457 0.719999 21.4177 0.719999C20.6657 0.719999 20.3137 1.216 20.3137 1.744C20.3137 1.856 20.3297 1.984 20.3617 2.096L23.0977 11.168C23.2737 11.76 23.6417 12.128 24.2497 12.128C24.8577 12.128 25.2577 11.76 25.4497 11.168L27.8337 3.968L30.2657 11.184C30.4577 11.76 30.8577 12.128 31.4497 12.128C32.0577 12.128 32.4097 11.76 32.5857 11.168L35.2737 1.856C35.3057 1.76 35.3217 1.664 35.3217 1.568C35.3217 1.104 34.9537 0.719999 34.3937 0.719999C33.8497 0.719999 33.6097 1.104 33.4817 1.536L31.4497 8.8L29.1297 1.664Z" fill="#E9399C"/>
</svg>