<svg width="39" height="15" viewBox="0 0 39 15" fill="none" xmlns="http://www.w3.org/2000/svg">
<path d="M30.0218 11.288H26.2618C27.1418 10.504 30.4378 7.736 30.4378 4.6C30.4378 3.112 29.3978 1.672 27.2698 1.672C25.7658 1.672 24.8538 2.232 24.1978 3.336C24.1018 3.512 24.0538 3.672 24.0538 3.848C24.0538 4.152 24.2138 4.424 24.4698 4.568C24.5978 4.648 24.7418 4.68 24.8858 4.68C25.1898 4.68 25.4938 4.52 25.7178 4.216C26.0858 3.72 26.4858 3.512 27.0618 3.512C27.9898 3.512 28.4858 4.072 28.4858 4.968C28.4858 7.016 26.0218 9.368 24.2138 11.208C24.0058 11.416 23.7818 11.704 23.7818 12.152C23.7818 12.616 24.1658 13 24.6298 13H30.0218C30.4858 13 30.8698 12.616 30.8698 12.136C30.8698 11.672 30.4858 11.288 30.0218 11.288ZM34.6882 11.336C34.1122 11.336 33.5842 11.16 33.0082 10.776C32.8162 10.648 32.6082 10.568 32.4002 10.568C32.1762 10.568 31.9522 10.664 31.7762 10.888C31.6482 11.064 31.5842 11.24 31.5842 11.432C31.5842 11.672 31.6962 11.912 31.8562 12.056C32.7682 12.84 33.6642 13.176 34.6402 13.176C36.7682 13.176 38.4962 11.784 38.4962 9.368C38.4962 7.16 36.9602 5.8 34.9762 5.8C34.7522 5.8 34.5122 5.832 34.3362 5.864L34.6562 3.64H37.4402C37.9362 3.64 38.3362 3.24 38.3362 2.712C38.3362 2.2 37.9362 1.8 37.4402 1.8H33.9362C33.4242 1.8 32.9922 2.184 32.9282 2.696L32.4482 6.616C32.4482 6.664 32.4322 6.728 32.4322 6.776C32.4322 7.24 32.7202 7.528 33.1842 7.528C33.2322 7.528 33.2962 7.512 33.3442 7.512C33.6002 7.48 33.8722 7.464 34.1442 7.464C35.6482 7.464 36.5282 8.328 36.5282 9.448C36.5282 10.552 35.7602 11.336 34.6882 11.336Z" fill="#CDCDCD"/>
<path d="M20.2867 7.09147C20.108 6.83483 15.8508 0.807617 10.4137 0.807617C4.97653 0.807617 0.719179 6.83484 0.540702 7.09122C0.371483 7.33469 0.371483 7.66491 0.540702 7.90838C0.719179 8.16502 4.97653 14.1922 10.4137 14.1922C15.8508 14.1922 20.108 8.16498 20.2867 7.90859C20.4561 7.66516 20.4561 7.33469 20.2867 7.09147ZM10.4137 12.8076C6.40864 12.8076 2.93985 8.80724 1.91301 7.49945C2.93852 6.19052 6.40005 2.19223 10.4137 2.19223C14.4185 2.19223 17.8871 6.19191 18.9144 7.5004C17.8889 8.80929 14.4273 12.8076 10.4137 12.8076Z" fill="#CDCDCD"/>
<path d="M10.4137 3.34619C8.23237 3.34619 6.45764 5.20966 6.45764 7.50006C6.45764 9.79045 8.23237 11.6539 10.4137 11.6539C12.595 11.6539 14.3698 9.79045 14.3698 7.50006C14.3698 5.20966 12.595 3.34619 10.4137 3.34619ZM10.4137 10.2693C8.9594 10.2693 7.77635 9.02703 7.77635 7.50006C7.77635 5.97308 8.95944 4.73084 10.4137 4.73084C11.868 4.73084 13.0511 5.97308 13.0511 7.50006C13.0511 9.02703 11.868 10.2693 10.4137 10.2693Z" fill="#CDCDCD"/>
</svg>